{"title":"Star.Wars.The.Clone.Wars.S05E18.HDTV.Xvid-MrX","uid":8162463,"size":205195050,"categoryP":"video","categoryS":"tv_shows","magnet":"?xt=urn:btih:11085c41b43c157050e855060bc24712f7b42585&amp;dn=Star.Wars.The.Clone.Wars.S05E18.HDTV.Xvid-MrX&amp;tr=udp%3A%2F%2Ftracker.openbittorrent.com%3A80&amp;tr=udp%3A%2F%2Fopen.demonii.com%3A1337&amp;tr=udp%3A%2F%2Ftracker.coppersurfer.tk%3A6969&amp;tr=udp%3A%2F%2Fexodus.desync.com%3A6969","seeders":0,"leechers":1,"uploader":"D.N.M","files":3,"time":1361233637,"description":"   _____       ____  ___\n  /     ______   /  /\n /   /  _  __      /\n/    Y      | /     \n____|__  /__| /___/  \n        /           _/\n\n\nStar.Wars.The.Clone.Wars.S05E18.HDTV.Xvid-MrX &lt;a href=&quot;\nhttp://www.starwars.com/explore/the-clone-wars/&quot; rel=&quot;nofollow&quot; target=&quot;_NEW&quot;&gt;\nhttp://www.starwars.com/explore/the-clone-wars/&lt;/a&gt;\n\n\n\nGeneral\nComplete name                            : Star.Wars.The.Clone.Wars.S05E18.HDTV.Xvid-MrX.avi\nFormat                                   : AVI\nFormat/Info                              : Audio Video Interleave\nFile size                                : 195 MiB\nDuration                                 : 21mn 49s\nOverall bit rate mode                    : Variable\nOverall bit rate                         : 1 250 Kbps\n\nVideo\nID                                       : 0\nFormat                                   : MPEG-4 Visual\nFormat profile                           : Advanced Simple@L5\nFormat settings, BVOP                    : 1\nFormat settings, QPel                    : No\nFormat settings, GMC                     : No warppoints\nFormat settings, Matrix                  : Default (H.263)\nMuxing mode                              : Packed bitstream\nCodec ID                                 : XVID\nCodec ID/Hint                            : XviD\nDuration                                 : 21mn 49s\nBit rate                                 : 1 089 Kbps\nWidth                                    : 640 pixels\nHeight                                   : 352 pixels\nDisplay aspect ratio                     : 16:9\nFrame rate                               : 23.976 fps\nColor space                              : YUV\nChroma subsampling                       : 4:2:0\nBit depth                                : 8 bits\nScan type                                : Progressive\nCompression mode                         : Lossy\nBits/(Pixel*Frame)                       : 0.202\nStream size                              : 170 MiB (87%)\nWriting library                          : XviD 1.2.1 (UTC 2008-12-04)\n\nAudio\nID                                       : 1\nFormat                                   : MPEG Audio\nFormat version                           : Version 1\nFormat profile                           : Layer 3\nCodec ID                                 : 55\nCodec ID/Hint                            : MP3\nDuration                                 : 21mn 49s\nBit rate mode                            : Variable\nBit rate                                 : 148 Kbps\nMinimum bit rate                         : 32.0 Kbps\nChannel(s)                               : 2 channels\nSampling rate                            : 48.0 KHz\nCompression mode                         : Lossy\nStream size                              : 23.1 MiB (12%)\nAlignment                                : Aligned on interleaves\nInterleave, duration                     : 24 ms (0.58 video frame)\nInterleave, preload duration             : 132 ms\nTitle                                    : Star.Wars.The.Clone.Wars.S05E18\nWriting library                          : LAME3.99r\nEncoding settings                        : -m s -V 4 -q 0 -lowpass 17.5 --vbr-new -b 32\n","torrent":{"xt":"urn:btih:11085c41b43c157050e855060bc24712f7b42585","amp;dn":"Star.Wars.The.Clone.Wars.S05E18.HDTV.Xvid-MrX","amp;tr":["udp%3A%2F%2Ftracker.openbittorrent.com%3A80","udp%3A%2F%2Fopen.demonii.com%3A1337","udp%3A%2F%2Ftracker.coppersurfer.tk%3A6969","udp%3A%2F%2Fexodus.desync.com%3A6969"],"infoHash":"11085c41b43c157050e855060bc24712f7b42585","infoHashBuffer":{"type":"Buffer","data":[17,8,92,65,180,60,21,112,80,232,85,6,11,194,71,18,247,180,37,133]},"announce":[],"urlList":[]}}